<?xml version="1.0" encoding="UTF-8" standalone="no"?>
<!-- Generator: Adobe Illustrator 16.0.0, SVG Export Plug-In . SVG Version: 6.00 Build 0)  -->

<svg
   xmlns:dc="http://purl.org/dc/elements/1.1/"
   xmlns:cc="http://creativecommons.org/ns#"
   xmlns:rdf="http://www.w3.org/1999/02/22-rdf-syntax-ns#"
   xmlns:svg="http://www.w3.org/2000/svg"
   xmlns="http://www.w3.org/2000/svg"
   xmlns:sodipodi="http://sodipodi.sourceforge.net/DTD/sodipodi-0.dtd"
   xmlns:inkscape="http://www.inkscape.org/namespaces/inkscape"
   version="1.1"
   id="Capa_1"
   x="0px"
   y="0px"
   width="497.66458"
   height="522.65985"
   viewBox="0 0 426.25457 447.66327"
   xml:space="preserve"
   inkscape:version="0.48.5 r10040"
   sodipodi:docname="padlock-unlock.svg"><sodipodi:namedview
     pagecolor="#ffffff"
     bordercolor="#666666"
     borderopacity="1"
     objecttolerance="10"
     gridtolerance="10"
     guidetolerance="10"
     inkscape:pageopacity="0"
     inkscape:pageshadow="2"
     inkscape:window-width="1920"
     inkscape:window-height="1025"
     id="namedview37"
     showgrid="false"
     inkscape:zoom="0.32593203"
     inkscape:cx="885.61639"
     inkscape:cy="90.723202"
     inkscape:window-x="-2"
     inkscape:window-y="-3"
     inkscape:window-maximized="1"
     inkscape:current-layer="Capa_1"
     fit-margin-top="0"
     fit-margin-left="0"
     fit-margin-right="0"
     fit-margin-bottom="0" /><metadata
     id="metadata41"><rdf:RDF><cc:Work
         rdf:about=""><dc:format>image/svg+xml</dc:format><dc:type
           rdf:resource="http://purl.org/dc/dcmitype/StillImage" /><dc:title></dc:title></cc:Work></rdf:RDF></metadata><defs
     id="defs39"><marker
       style="overflow:visible"
       id="Arrow2Send"
       refX="0"
       refY="0"
       orient="auto"
       inkscape:stockid="Arrow2Send"><path
         transform="matrix(-0.3,0,0,-0.3,0.69,0)"
         d="M 8.7185878,4.0337352 -2.2072895,0.01601326 8.7185884,-4.0017078 c -1.7454984,2.3720609 -1.7354408,5.6174519 -6e-7,8.035443 z"
         style="fill-rule:evenodd;stroke-width:0.625;stroke-linejoin:round"
         id="path4005"
         inkscape:connector-curvature="0" /></marker><marker
       inkscape:stockid="Arrow2Lend"
       orient="auto"
       refY="0"
       refX="0"
       id="Arrow2Lend"
       style="overflow:visible"><path
         id="path3993"
         style="fill-rule:evenodd;stroke-width:0.625;stroke-linejoin:round"
         d="M 8.7185878,4.0337352 -2.2072895,0.01601326 8.7185884,-4.0017078 c -1.7454984,2.3720609 -1.7354408,5.6174519 -6e-7,8.035443 z"
         transform="matrix(-1.1,0,0,-1.1,-1.1,0)"
         inkscape:connector-curvature="0" /></marker><marker
       inkscape:stockid="Arrow2Lendo"
       orient="auto"
       refY="0"
       refX="0"
       id="Arrow2Lendo"
       style="overflow:visible"><path
         id="path4418"
         style="fill:#303ca6;fill-rule:evenodd;stroke:#303ca6;stroke-width:0.625;stroke-linejoin:round"
         d="M 8.7185878,4.0337352 -2.2072895,0.01601326 8.7185884,-4.0017078 c -1.7454984,2.3720609 -1.7354408,5.6174519 -6e-7,8.035443 z"
         transform="matrix(-1.1,0,0,-1.1,-1.1,0)"
         inkscape:connector-curvature="0" /></marker><marker
       style="overflow:visible"
       id="Arrow2Send9"
       refX="0"
       refY="0"
       orient="auto"
       inkscape:stockid="Arrow2Send9"><path
         transform="matrix(-0.3,0,0,-0.3,0.69,0)"
         d="M 8.7185878,4.0337352 -2.2072895,0.01601326 8.7185884,-4.0017078 c -1.7454984,2.3720609 -1.7354408,5.6174519 -6e-7,8.035443 z"
         style="fill:#303ca6;fill-rule:evenodd;stroke:#303ca6;stroke-width:0.625;stroke-linejoin:round"
         id="path4662"
         inkscape:connector-curvature="0" /></marker></defs><g
     id="g3"
     transform="translate(-54.818,9.1312659)"><path
       d="m 375.721,227.259 c -5.331,-5.331 -11.8,-7.992 -19.417,-7.992 H 146.176 v -91.36 c 0,-20.179 7.139,-37.402 21.415,-51.678 14.277,-14.273 31.501,-21.411 51.678,-21.411 20.175,0 37.402,7.137 51.673,21.411 14.277,14.276 21.416,31.5 21.416,51.678 0,4.947 1.807,9.229 5.42,12.845 3.621,3.617 7.905,5.426 12.847,5.426 h 18.281 c 4.945,0 9.227,-1.809 12.848,-5.426 3.606,-3.616 5.42,-7.898 5.42,-12.845 0,-35.216 -12.515,-65.331 -37.541,-90.362 C 284.603,12.513 254.48,0 219.269,0 184.055,0 153.935,12.513 128.903,37.544 103.875,62.572 91.361,92.69 91.361,127.906 v 91.36 h -9.135 c -7.611,0 -14.084,2.667 -19.414,7.992 -5.33,5.325 -7.994,11.8 -7.994,19.414 v 164.452 c 0,7.617 2.665,14.089 7.994,19.417 5.33,5.325 11.803,7.991 19.414,7.991 h 274.078 c 7.617,0 14.092,-2.666 19.417,-7.991 5.325,-5.328 7.994,-11.8 7.994,-19.417 V 246.673 c 0.004,-7.614 -2.662,-14.082 -7.994,-19.414 z"
       id="path5"
       inkscape:connector-curvature="0"
       style="fill:#303ca6" /></g><g
     id="g7"
     transform="translate(-54.818,9.1312659)" /><g
     id="g9"
     transform="translate(-54.818,9.1312659)" /><g
     id="g11"
     transform="translate(-54.818,9.1312659)" /><g
     id="g13"
     transform="translate(-54.818,9.1312659)" /><g
     id="g15"
     transform="translate(-54.818,9.1312659)" /><g
     id="g17"
     transform="translate(-54.818,9.1312659)" /><g
     id="g19"
     transform="translate(-54.818,9.1312659)" /><g
     id="g21"
     transform="translate(-54.818,9.1312659)" /><g
     id="g23"
     transform="translate(-54.818,9.1312659)" /><g
     id="g25"
     transform="translate(-54.818,9.1312659)" /><g
     id="g27"
     transform="translate(-54.818,9.1312659)" /><g
     id="g29"
     transform="translate(-54.818,9.1312659)" /><g
     id="g31"
     transform="translate(-54.818,9.1312659)" /><g
     id="g33"
     transform="translate(-54.818,9.1312659)" /><g
     id="g35"
     transform="translate(-54.818,9.1312659)" /><path
     style="fill:none;stroke:#303ca6;stroke-width:25.69529343;stroke-linecap:butt;stroke-linejoin:miter;stroke-miterlimit:4;stroke-opacity:1;stroke-dasharray:none;marker-start:none;marker-end:url(#Arrow2Send9)"
     d="M 324.2529,12.847647 C 390.12909,69.78499 393.49208,140.11803 391.14777,211.67405"
     id="path3018"
     inkscape:connector-curvature="0"
     sodipodi:nodetypes="cc" /><rect
     style="fill:#818adb;fill-opacity:1;stroke:none"
     id="rect4712"
     width="45.987873"
     height="109.05696"
     x="141.45457"
     y="279.48004"
     ry="22.993937" /></svg>